<?xml version="1.0" encoding="iso-8859-1"?>
<!-- Uploaded to: SVG Repo, www.svgrepo.com, Generator: SVG Repo Mixer Tools -->
<svg height="800px" width="800px" version="1.1" id="Layer_1" xmlns="http://www.w3.org/2000/svg" xmlns:xlink="http://www.w3.org/1999/xlink" 
	 viewBox="0 0 502.95 502.95" xml:space="preserve">
<path style="fill:#F0B551;" d="M289.35,160.675L289.35,160.675l-43.6-43.6c-6.4-6.4-15.2-10-24.4-10s-18,3.6-24.4,10l-17.6,18
	l149.2,149.2c0.8,0.8,0.8,2,0,2.8c-0.4,0-1.2,0.4-1.6,0.4c-0.4,0-1.2,0-1.2-0.4l-150.8-150.8l-4-4l-29.6,29.6l4,4l0,0l0,0l14,14l0,0
	l0,0l15.2,15.2l0,0l0,0l17.2,17.2l0,0l0,0l32.4,32.4l0,0l0,0l16.4,16.4l0,0l0,0l16.4,16.4l0,0l0,0l16.8,16.8l0,0l0,0l33.2,33.2l0,0
	l0,0l15.2,15.2l0,0l0,0l14.4,14.4l0,0l0,0l4,4l29.6-29.6l-4-4c-0.4-0.4-0.4-0.8-0.4-1.2c0-0.4,0.4-1.2,0.4-1.2l19.2-19.2
	c6.4-6.4,10-15.2,10-24.4c0-9.2-3.6-18-10-24.4l-43.2-43.6l0,0l0,0L289.35,160.675L289.35,160.675z"/>
<path style="fill:#73BADD;" d="M203.35,228.275L203.35,228.275l-12-12.8l-0.8,1.2l-111.6,111.6c-0.4,0.4-0.8,0.4-1.2,0.4
	s-0.8,0-1.2-0.4c-0.8-0.8-0.8-2,0-2.8l111.6-111.6l1.2-1.2l-14.4-14.4l-1.6,1.2l-119.6,119.6l14.4,46.4l134.8-135.6L203.35,228.275z
	"/>
<g>
	<path style="fill:#ACD9EA;" d="M238.15,261.475l-13.6-13.6l-1.2,1.6l-111.6,111.6c-0.4,0.4-0.8,0.4-1.2,0.4s-0.8,0-1.2-0.4
		c-0.8-0.8-0.8-2,0-2.8l111.6-111.6l-0.8-1.2l-16.8-14.4l0,0l0.8,1.2l-134.4,136l46.8,14.4l120-119.6L238.15,261.475z"/>
	<path style="fill:#ACD9EA;" d="M171.75,195.475l-12.4-12.4l-1.2,1.2l-111.6,111.6c-0.4,0.4-0.8,0.4-1.2,0.4s-0.8,0-1.2-0.4
		c-0.8-0.8-0.8-2,0-2.8l111.2-111.6l1.2-1.2l-11.2-11.2l-1.2,1.2l-135.6,135.6l42.4,10.8l119.6-119.6L171.75,195.475z"/>
	<path style="fill:#ACD9EA;" d="M304.15,327.875l-14.4-14.4l-1.2,1.2l-111.6,111.6c-0.4,0.4-0.8,0.4-1.2,0.4s-1.2,0-1.2-0.4
		c-0.8-0.8-0.8-2,0-2.8l111.6-111.6l1.2-1.2l-12.8-12.8l-1.2,1.2l-135.6,135.6l46.4,14.4l119.6-119.6L304.15,327.875z"/>
</g>
<g>
	<path style="fill:#73BADD;" d="M271.35,294.675l-14-14l-1.2,1.2l-112,111.6c-0.4,0.4-0.8,0.4-1.2,0.4s-0.8,0-1.2-0.4
		c-0.8-0.8-0.8-2,0-2.8l111.6-111.6l1.2-1.2l-13.6-13.6l-1.6,1.6l-119.6,119.6l14.4,46.4l135.6-135.6L271.35,294.675z"/>
	<path style="fill:#73BADD;" d="M322.15,343.475L322.15,343.475l-1.2,2.4l-111.6,112c-0.4,0.4-0.8,0.8-1.2,0.8s-1.2,0-1.2-0.4
		c-0.8-0.8-0.8-2,0-2.8l111.6-111.6l1.2-1.2l-12.4-12.4l-1.2,1.2l-120.4,120l11.2,42.8l135.6-136.4l1.2-2.4l0,0L322.15,343.475z"/>
</g>
<polygon style="fill:#CCCCCC;" points="144.15,169.075 155.35,180.275 155.35,180.275 "/>
<path style="fill:#EF934A;" d="M486.15,17.875l-1.2-0.8c-6.4-6.4-15.2-9.6-24.4-9.6l0,0c-9.2,0-18.4,3.2-24.8,9.6l-144.4,143.6l0,0
	l52,50l0,0l143.2-144c6.4-6.4,9.6-15.2,9.6-24.4C496.55,33.075,492.55,24.275,486.15,17.875z M474.15,59.475c-4,4-9.6,6.4-15.2,6.4
	s-11.2-2.4-15.2-6.4s-6.4-9.6-6.4-15.2s2.4-11.2,6.4-15.2s9.6-6.4,15.2-6.4s11.2,2.4,15.2,6.4
	C482.55,37.475,482.55,51.075,474.15,59.475z"/>
<path style="fill:#F0B551;" d="M458.95,61.875c4.8,0,9.2-2,12.4-5.2c6.8-6.8,6.8-18,0-24.8c-3.2-3.2-7.6-5.2-12.4-5.2
	s-9.2,2-12.4,5.2c-3.2,3.2-5.2,7.6-5.2,12.4s2,9.2,5.2,12.4C449.75,59.875,454.15,61.875,458.95,61.875z"/>
<path d="M340.95,368.275c-1.2,0-2-0.4-2.8-1.2l-202-202c-0.8-0.8-1.2-1.6-1.2-2.8s0.4-2,1.2-2.8l32.4-32.4c1.6-1.6,4-1.6,5.6,0
	l2.4,2.4l16.4-16.4c15.6-15.6,41.6-15.6,57.2,0l139.6,139.6c15.6,15.6,16,41.6,0.4,57.6l-16.4,16.4l2.4,2.4c1.6,1.6,1.6,4,0,5.6
	l-32.4,32.4C342.95,367.875,342.15,368.275,340.95,368.275z M144.55,162.275l196.4,196.4l26.8-26.8l-2.4-2.4c-1.6-1.6-1.6-4,0-5.6
	l19.2-19.2c12.4-12.8,12.4-33.6-0.4-46.4l-139.6-139.6c-12.4-12.4-33.6-12.4-46,0l-19.2,19.2c-1.6,1.6-4,1.6-5.6,0l-2.4-2.4
	L144.55,162.275z"/>
<path d="M196.15,502.275c-0.4,0-0.8,0-1.2,0c-1.2-0.4-2.4-1.6-2.8-2.8l-12-45.2l-48.4-14.8c-1.2-0.4-2.4-1.2-2.8-2.8l-14.8-48.8
	l-48.8-14.8c-1.2-0.4-2.4-1.2-2.8-2.8l-14.8-48.4l-44.8-11.6c-1.2-0.4-2.4-1.6-2.8-2.8s0-2.8,1.2-4l139.6-139.2c1.6-1.6,4-1.6,5.6,0
	s1.6,4,0,5.6l-134.8,134.4l40,10.4c1.2,0.4,2.4,1.2,2.8,2.8l14.8,48.4l48.8,14.8c1.2,0.4,2.4,1.2,2.8,2.8l14.8,48.8l48.4,14.8
	c1.2,0.4,2.4,1.6,2.8,2.8l10.8,40.4l134.4-134.8c1.6-1.6,4-1.6,5.6,0s1.6,4,0,5.6l-139.2,139.6
	C198.15,501.875,197.35,502.275,196.15,502.275z"/>
<path d="M343.75,216.275c-1.2,0-2-0.4-2.8-1.2c-1.6-1.6-1.6-4,0-5.6l144-144c12.4-12.4,12.4-33.6,0-46l-1.2-1.2
	c-6-6.4-14-9.6-22.8-9.6s-16.8,3.6-22.8,9.6l-144,144c-1.6,1.6-4,1.6-5.6,0s-1.6-4,0-5.6l144-144c7.6-7.6,17.6-12,28.8-12
	c10.8,0,21.2,4.4,28.8,12l1.2,1.2c7.6,7.6,11.6,17.6,11.6,28.8s-4,21.2-11.6,28.8l-144,144
	C345.75,215.875,344.95,216.275,343.75,216.275z"/>
<path d="M458.95,67.875c-13.2,0-23.6-10.4-23.6-23.6s10.4-23.6,23.6-23.6c13.2,0,23.6,10.4,23.6,23.6S472.15,67.875,458.95,67.875z
	 M458.95,28.675c-8.8,0-15.6,6.8-15.6,15.6c0,8.8,7.2,15.6,15.6,15.6s15.6-6.8,15.6-15.6S467.75,28.675,458.95,28.675z"/>
<path d="M117.35,388.675c-1.2,0-2-0.4-2.8-1.2c-1.6-1.6-1.6-4,0-5.6l122-121.6c1.6-1.6,4-1.6,5.6,0s1.6,4,0,5.6l-122,121.6
	C119.35,388.275,118.55,388.675,117.35,388.675z"/>
<path d="M66.95,373.075c-1.2,0-2-0.4-2.8-1.2c-1.6-1.6-1.6-4,0-5.6l139.6-139.2c1.6-1.6,4-1.6,5.6,0s1.6,4,0,5.6l-139.6,139.2
	C68.95,372.675,68.15,373.075,66.95,373.075z"/>
<path d="M51.35,322.675c-1.2,0-2-0.4-2.8-1.2c-1.6-1.6-1.6-4,0-5.6l122-122c1.6-1.6,4-1.6,5.6,0s1.6,4,0,5.6l-122,122
	C53.35,322.275,52.55,322.675,51.35,322.675z"/>
<path d="M45.35,298.275c-1.2,0-2-0.4-2.8-1.2c-1.6-1.6-1.6-4,0-5.6l112.8-112.8c1.6-1.6,4-1.6,5.6,0s1.6,4,0,5.6l-112.8,112.8
	C47.35,297.875,46.55,298.275,45.35,298.275z"/>
<path d="M77.75,331.075c-1.2,0-2-0.4-2.8-1.2c-1.6-1.6-1.6-4,0-5.6l112.8-112.8c1.6-1.6,4-1.6,5.6,0s1.6,4,0,5.6l-112.8,112.8
	C79.75,330.675,78.95,331.075,77.75,331.075z"/>
<path d="M110.55,363.475c-1.2,0-2-0.4-2.8-1.2c-1.6-1.6-1.6-4,0-5.6l112.8-112.8c1.6-1.6,4-1.6,5.6,0s1.6,4,0,5.6l-112.8,112.8
	C112.55,363.075,111.75,363.475,110.55,363.475z"/>
<path d="M142.95,395.875c-1.2,0-2-0.4-2.8-1.2c-1.6-1.6-1.6-4,0-5.6l112.8-112.8c1.6-1.6,4-1.6,5.6,0s1.6,4,0,5.6l-112.8,112.8
	C144.95,395.475,144.15,395.875,142.95,395.875z"/>
<path d="M175.35,428.675c-1.2,0-2-0.4-2.8-1.2c-1.6-1.6-1.6-4,0-5.6l112.8-112.8c1.6-1.6,4-1.6,5.6,0s1.6,4,0,5.6l-112.8,112.8
	C177.35,428.275,176.55,428.675,175.35,428.675z"/>
<path d="M208.15,461.075c-1.2,0-2-0.4-2.8-1.2c-1.6-1.6-1.6-4,0-5.6l112.8-112.8c1.6-1.6,4-1.6,5.6,0s1.6,4,0,5.6l-112.8,112.8
	C210.15,460.675,209.35,461.075,208.15,461.075z"/>
<path d="M133.35,439.475c-1.2,0-2-0.4-2.8-1.2c-1.6-1.6-1.6-4,0-5.6l139.2-139.6c1.6-1.6,4-1.6,5.6,0s1.6,4,0,5.6l-139.2,139.6
	C135.35,439.075,134.55,439.475,133.35,439.475z"/>
<path d="M183.75,455.075c-1.2,0-2-0.4-2.8-1.2c-1.6-1.6-1.6-4,0-5.6l122-122c1.6-1.6,4-1.6,5.6,0s1.6,4,0,5.6l-122,122
	C185.75,454.675,184.95,455.075,183.75,455.075z"/>
<path d="M326.95,289.475c-1.2,0-2-0.4-2.8-1.2l-150.4-150.4c-1.6-1.6-1.6-4,0-5.6s4-1.6,5.6,0l150.4,150.4c1.6,1.6,1.6,4,0,5.6
	C328.95,289.075,328.15,289.475,326.95,289.475z"/>
</svg>